<?xml version="1.0" encoding="UTF-8"?>
<svg xmlns="http://www.w3.org/2000/svg" xmlns:xlink="http://www.w3.org/1999/xlink" width="1919.9pt" height="1919.9pt" viewBox="0 0 1919.9 1919.9" version="1.1">
<defs>
<clipPath id="clip1">
  <path d="M 0 0 L 1919.898438 0 L 1919.898438 1919.898438 L 0 1919.898438 Z M 0 0 "/>
</clipPath>
</defs>
<g id="surface1">
<g clip-path="url(#clip1)" clip-rule="nonzero">
<path style=" stroke:none;fill-rule:evenodd;fill:rgb(100%,100%,100%);fill-opacity:1;" d="M 474.378906 -0.0898438 L 1444.601563 -0.0898438 C 1489.691406 0.519531 1534.730469 6.960938 1577.941406 19.898438 C 1619 32.261719 1658.488281 49.980469 1694.738281 72.898438 C 1760.601563 114.089844 1816.101563 171.621094 1855.078125 238.789063 C 1876.28125 275.160156 1892.511719 314.371094 1903.539063 355 C 1914.148438 394.820313 1919.511719 435.988281 1919.988281 477.199219 L 1919.988281 1443.5625 C 1919.441406 1480.839844 1915.011719 1518.089844 1906.179688 1554.339844 C 1886.410156 1635.660156 1844.691406 1711.46875 1786.761719 1771.839844 C 1717.550781 1844.527344 1624.941406 1894.867188 1525.988281 1912.179688 C 1499.171875 1917.179688 1471.898438 1919.386719 1444.660156 1919.898438 L 475.410156 1919.898438 C 426.367188 1919.199219 377.289063 1911.699219 330.667969 1896.332031 C 293.667969 1884.210938 258.101563 1867.667969 225.179688 1846.859375 C 159.371094 1805.679688 103.898438 1748.199219 64.941406 1681.070313 C 43.710938 1644.671875 27.460938 1605.421875 16.441406 1564.773438 C 5.898438 1525.273438 0.589844 1484.453125 0 1443.59375 L 0 476.230469 C 0.488281 465.089844 0.410156 453.910156 1.589844 442.808594 C 6.78125 372.210938 28.089844 302.851563 63.371094 241.46875 C 96.78125 182.980469 142.6875 131.738281 197.050781 91.980469 C 250.75 52.691406 312.730469 24.679688 377.820313 10.730469 C 409.550781 3.910156 441.949219 0.46875 474.378906 -0.0898438 Z M 474.378906 -0.0898438 "/>
</g>
<path style=" stroke:none;fill-rule:evenodd;fill:rgb(98.046875%,66.601563%,19.213867%);fill-opacity:1;" d="M 902.066406 162.628906 C 936.082031 154.589844 971.679688 153.488281 1006.160156 159.148438 C 1055.261719 167.28125 1101.839844 189.808594 1138.828125 223.109375 C 1178.851563 259.089844 1208.140625 307.460938 1219.691406 360.121094 C 1203.910156 369.640625 1189.429688 381.261719 1176.050781 393.921875 C 1163.140625 406.019531 1150.859375 418.789063 1137.941406 430.878906 C 1097.441406 470.359375 1056.929688 509.851563 1016.289063 549.210938 C 1003.421875 561.96875 989.953125 574.238281 978.777344 588.601563 C 972.308594 596.421875 966.742188 604.929688 961.101563 613.371094 C 955.25 604.441406 949.5 595.441406 942.777344 587.148438 C 935.371094 577.648438 927.121094 568.839844 918.550781 560.390625 C 871.082031 514.199219 823.589844 468.019531 776.105469 421.839844 C 762.503906 408.761719 749.261719 395.28125 735.246094 382.621094 C 726.019531 374.539063 716.191406 367.199219 705.988281 360.390625 L 705.601563 360.140625 C 715.277344 317.789063 735.929688 278.039063 764.609375 245.460938 C 800.390625 204.511719 849.132813 175.128906 902.066406 162.628906 Z M 959.230469 872.660156 C 965.816406 882.851563 972.382813 893.171875 980.488281 902.25 C 980.128906 902.738281 979.769531 903.238281 979.441406 903.75 C 980.152344 903.878906 981.578125 904.128906 982.300781 904.261719 L 981.773438 904.289063 C 966.695313 905.628906 951.492188 905.289063 936.460938 903.679688 C 944.789063 893.898438 952.195313 883.398438 959.230469 872.660156 Z M 959.230469 872.660156 "/>
<path style=" stroke:none;fill-rule:evenodd;fill:rgb(95.3125%,47.851563%,36.473083%);fill-opacity:1;" d="M 388.578125 375.550781 C 432.507813 340.03125 488.078125 319.261719 544.460938 317.011719 C 548.480469 318.53125 552.820313 317.679688 557 317.738281 C 561.460938 317.558594 566.070313 318.460938 570.410156 316.988281 C 618.21875 318.871094 665.5 333.96875 705.597656 360.148438 L 705.988281 360.398438 C 703.820313 365.671875 703.398438 371.421875 702.289063 376.96875 C 698.6875 397.398438 698.539063 418.210938 698.707031 438.878906 C 698.71875 501.558594 698.707031 564.238281 698.71875 626.921875 C 698.488281 646.96875 699.117188 667.121094 702.828125 686.871094 C 703.976563 694.058594 705.75 701.128906 707.386719 708.21875 C 689.777344 704.859375 671.917969 702.441406 653.96875 702.601563 C 565.96875 702.53125 477.980469 702.601563 389.988281 702.570313 C 371.398438 702.300781 352.777344 703.910156 334.550781 707.570313 L 334.457031 707.589844 C 309.667969 669.550781 295.050781 624.691406 294.050781 579.261719 C 295.367188 574.148438 295.53125 568.609375 294.058594 563.539063 C 294.820313 529.738281 302.910156 496.011719 317.488281 465.46875 C 333.839844 430.550781 358.589844 399.710938 388.578125 375.550781 Z M 900.160156 897.671875 C 911.96875 900.710938 924.089844 902.078125 936.078125 904.101563 C 926.867188 914.46875 917.128906 924.421875 906.476563 933.335938 C 904.417969 921.441406 903.199219 909.390625 900.160156 897.671875 Z M 900.160156 897.671875 "/>
<path style=" stroke:none;fill-rule:evenodd;fill:rgb(94.53125%,38.818359%,25.488281%);fill-opacity:1;" d="M 544.460938 317.011719 C 553.097656 316.550781 561.757813 316.550781 570.410156 316.988281 C 566.070313 318.460938 561.460938 317.558594 557 317.738281 C 552.820313 317.679688 548.480469 318.53125 544.460938 317.011719 Z M 294.058594 563.539063 C 295.53125 568.609375 295.367188 574.148438 294.050781 579.261719 C 293.800781 574.019531 293.730469 568.761719 294.058594 563.539063 Z M 294.058594 563.539063 "/>
<path style=" stroke:none;fill-rule:evenodd;fill:rgb(96.484375%,89.451599%,13.330078%);fill-opacity:1;" d="M 1219.691406 360.121094 C 1259.351563 335.210938 1305.890625 321.25 1352.628906 319.898438 C 1356.269531 321.25 1360.171875 320.78125 1363.980469 320.839844 C 1367.140625 320.828125 1370.421875 321.148438 1373.429688 319.890625 C 1414.671875 321.191406 1455.601563 332.429688 1491.929688 352.058594 C 1526.820313 371.039063 1557.511719 397.871094 1580.480469 430.328125 C 1607.121094 467.679688 1623.328125 512.539063 1625.898438 558.390625 C 1624.21875 563.730469 1625.488281 569.359375 1625.191406 574.859375 C 1625.351563 579.671875 1624.269531 584.679688 1625.910156 589.359375 C 1623.578125 634.160156 1608.230469 678.261719 1582.628906 715.121094 C 1561.390625 710.640625 1539.578125 710.269531 1517.960938 710.488281 C 1434.640625 710.480469 1351.320313 710.488281 1268.019531 710.5 C 1250.550781 710.53125 1233.101563 712.210938 1215.980469 715.679688 C 1223.191406 691.089844 1226.898438 665.488281 1226.960938 639.871094 C 1227 586.558594 1226.96875 533.25 1226.96875 479.929688 C 1226.839844 456.238281 1227.300781 432.550781 1226.660156 408.878906 C 1225.75 392.488281 1223.941406 376.019531 1219.699219 360.121094 Z M 982.296875 904.261719 C 995.449219 903.441406 1008.511719 901.359375 1021.410156 898.679688 C 1018.300781 911.238281 1016.070313 923.96875 1014.191406 936.769531 C 1002.519531 926.839844 991.746094 915.910156 981.769531 904.289063 Z M 982.296875 904.261719 "/>
<path style=" stroke:none;fill-rule:evenodd;fill:rgb(95.701599%,87.5%,1.177979%);fill-opacity:1;" d="M 1352.628906 319.898438 C 1359.558594 319.539063 1366.511719 319.601563 1373.429688 319.890625 C 1370.421875 321.148438 1367.140625 320.828125 1363.980469 320.839844 C 1360.171875 320.78125 1356.269531 321.25 1352.628906 319.898438 Z M 1352.628906 319.898438 "/>
<path style=" stroke:none;fill-rule:evenodd;fill:rgb(94.53125%,59.568787%,2.745056%);fill-opacity:1;" d="M 1176.050781 393.929688 C 1189.421875 381.261719 1203.910156 369.640625 1219.691406 360.121094 C 1223.941406 376.019531 1225.75 392.488281 1226.660156 408.878906 C 1227.300781 432.550781 1226.839844 456.238281 1226.96875 479.929688 C 1226.96875 533.25 1227 586.558594 1226.960938 639.871094 C 1226.898438 665.488281 1223.191406 691.089844 1215.980469 715.679688 C 1177.519531 723.710938 1140.921875 740.589844 1110.109375 765 C 1078.640625 789.710938 1053.128906 821.960938 1036.359375 858.269531 C 1030.441406 871.171875 1025.179688 884.460938 1021.910156 898.289063 C 1021.789063 898.390625 1021.539063 898.589844 1021.410156 898.679688 C 1008.511719 901.359375 995.445313 903.441406 982.296875 904.261719 C 981.578125 904.128906 980.148438 903.878906 979.4375 903.75 C 979.765625 903.238281 980.125 902.738281 980.484375 902.25 C 972.375 893.171875 965.816406 882.851563 959.226563 872.660156 L 959.085938 872.421875 C 970.378906 854.960938 978.746094 835.679688 985.195313 815.941406 C 1000.210938 768.53125 1000.398438 716.539063 985.796875 669 C 979.636719 649.691406 971.636719 630.851563 960.957031 613.578125 L 961.097656 613.371094 C 966.738281 604.929688 972.304688 596.421875 978.777344 588.601563 C 989.945313 574.238281 1003.421875 561.980469 1016.289063 549.210938 C 1056.929688 509.851563 1097.441406 470.359375 1137.941406 430.878906 C 1150.859375 418.789063 1163.128906 406.019531 1176.050781 393.929688 Z M 1176.050781 393.929688 "/>
<path style=" stroke:none;fill-rule:evenodd;fill:rgb(93.359375%,31.762695%,7.054138%);fill-opacity:1;" d="M 702.289063 376.96875 C 703.398438 371.421875 703.820313 365.671875 705.988281 360.398438 C 716.1875 367.210938 726.019531 374.539063 735.246094 382.621094 C 749.257813 395.28125 762.5 408.761719 776.105469 421.839844 C 823.585938 468.019531 871.078125 514.210938 918.546875 560.398438 C 927.117188 568.851563 935.367188 577.660156 942.777344 587.148438 C 949.496094 595.441406 955.246094 604.449219 961.097656 613.371094 L 960.957031 613.578125 C 947.238281 635.910156 937.039063 660.378906 930.746094 685.820313 C 919.4375 732.480469 921.6875 782.53125 938.085938 827.730469 C 943.699219 843.21875 950.519531 858.328125 959.085938 872.421875 L 959.226563 872.660156 C 952.195313 883.398438 944.789063 893.898438 936.457031 903.679688 L 936.078125 904.101563 C 924.089844 902.078125 911.96875 900.710938 900.160156 897.671875 C 891.027344 859.230469 872.566406 823.070313 847.097656 792.878906 C 815.707031 755.53125 773.328125 727.628906 726.679688 713.390625 C 720.417969 711.609375 714.199219 709.609375 707.746094 708.660156 C 707.65625 708.550781 707.476563 708.328125 707.386719 708.21875 C 705.75 701.128906 703.976563 694.058594 702.828125 686.871094 C 699.117188 667.121094 698.488281 646.96875 698.71875 626.921875 C 698.707031 564.238281 698.71875 501.558594 698.707031 438.878906 C 698.539063 418.210938 698.6875 397.398438 702.289063 376.96875 Z M 702.289063 376.96875 "/>
<path style=" stroke:none;fill-rule:evenodd;fill:rgb(95.701599%,87.889099%,0.784302%);fill-opacity:1;" d="M 1625.191406 574.859375 C 1625.488281 569.359375 1624.21875 563.730469 1625.898438 558.390625 C 1626.558594 568.691406 1626.628906 579.058594 1625.910156 589.359375 C 1624.269531 584.679688 1625.351563 579.671875 1625.191406 574.859375 Z M 1625.191406 574.859375 "/>
<path style=" stroke:none;fill-rule:evenodd;fill:rgb(90.234375%,28.24707%,0.784302%);fill-opacity:1;" d="M 930.746094 685.820313 C 937.039063 660.378906 947.238281 635.910156 960.957031 613.578125 C 971.636719 630.851563 979.636719 649.691406 985.796875 669 C 1000.398438 716.539063 1000.210938 768.53125 985.195313 815.941406 C 978.746094 835.679688 970.378906 854.960938 959.085938 872.421875 C 950.519531 858.328125 943.699219 843.21875 938.085938 827.730469 C 921.6875 782.53125 919.4375 732.480469 930.746094 685.820313 Z M 930.746094 685.820313 "/>
<path style=" stroke:none;fill-rule:evenodd;fill:rgb(78.90625%,25.488281%,25.488281%);fill-opacity:1;" d="M 334.550781 707.570313 C 352.777344 703.910156 371.398438 702.300781 389.988281 702.570313 C 477.980469 702.601563 565.96875 702.53125 653.96875 702.601563 C 671.917969 702.441406 689.777344 704.859375 707.386719 708.21875 C 707.476563 708.328125 707.65625 708.550781 707.746094 708.660156 C 720.457031 758.371094 748.859375 803.75 787.015625 837.929688 C 819.058594 866.75 858.328125 887.378906 900.160156 897.671875 C 903.199219 909.390625 904.417969 921.441406 906.476563 933.335938 L 905.945313 933.789063 C 894.609375 943.523438 882.1875 951.890625 869.4375 959.632813 L 869.289063 959.539063 C 830.148438 935.890625 784.796875 922.503906 739.089844 921.214844 C 688.199219 919.230469 636.847656 931.929688 592.847656 957.601563 L 592.730469 957.671875 C 572.410156 945.519531 554.058594 930.335938 537.4375 913.511719 C 487.699219 865.21875 438.039063 816.828125 388.320313 768.511719 C 375 755.519531 361.257813 742.839844 349.640625 728.261719 C 344.28125 721.609375 339.21875 714.71875 334.550781 707.570313 Z M 334.550781 707.570313 "/>
<path style=" stroke:none;fill-rule:evenodd;fill:rgb(82.8125%,53.318787%,69.334412%);fill-opacity:1;" d="M 241.269531 747.191406 C 269.25 727.941406 301.121094 714.210938 334.457031 707.589844 L 334.550781 707.570313 C 339.21875 714.71875 344.28125 721.609375 349.640625 728.261719 C 361.257813 742.839844 375 755.519531 388.320313 768.511719 C 438.039063 816.828125 487.699219 865.21875 537.4375 913.511719 C 554.058594 930.335938 572.410156 945.519531 592.730469 957.671875 C 572.769531 969.339844 554.457031 983.703125 538.058594 999.980469 C 482.320313 1054.253906 426.507813 1108.441406 370.777344 1162.71875 C 356.710938 1176.089844 344.019531 1190.898438 333.089844 1206.949219 C 291.429688 1198.378906 252.078125 1178.890625 219.847656 1151.140625 C 185.640625 1121.910156 159.390625 1083.46875 144.730469 1040.929688 C 133.828125 1009.890625 129.339844 976.640625 131.109375 943.835938 C 132.929688 904.550781 144.488281 865.898438 163.789063 831.691406 C 182.839844 798.191406 209.46875 769 241.269531 747.191406 Z M 869.4375 959.632813 C 882.1875 951.890625 894.609375 943.523438 905.945313 933.789063 C 907.835938 951.0625 907.4375 968.550781 905.578125 985.8125 C 894.285156 976.089844 882.21875 967.28125 869.4375 959.632813 Z M 869.4375 959.632813 "/>
<path style=" stroke:none;fill-rule:evenodd;fill:rgb(77.34375%,16.868591%,4.704285%);fill-opacity:1;" d="M 707.746094 708.660156 C 714.199219 709.609375 720.417969 711.609375 726.679688 713.390625 C 773.328125 727.628906 815.707031 755.53125 847.097656 792.878906 C 872.566406 823.070313 891.027344 859.230469 900.160156 897.671875 C 858.328125 887.378906 819.058594 866.75 787.015625 837.929688 C 748.859375 803.75 720.457031 758.371094 707.746094 708.660156 Z M 707.746094 708.660156 "/>
<path style=" stroke:none;fill-rule:evenodd;fill:rgb(69.726563%,75.389099%,4.315186%);fill-opacity:1;" d="M 1215.980469 715.679688 C 1233.101563 712.210938 1250.550781 710.53125 1268.019531 710.5 C 1351.320313 710.488281 1434.640625 710.480469 1517.960938 710.488281 C 1539.578125 710.269531 1561.390625 710.640625 1582.628906 715.121094 C 1572.289063 730.558594 1559.839844 744.488281 1546.488281 757.378906 C 1494.628906 807.851563 1442.75 858.308594 1390.859375 908.769531 C 1377.519531 921.78125 1364.320313 935.089844 1349.191406 946.085938 C 1341.929688 951.714844 1334.058594 956.480469 1326.429688 961.570313 L 1326.230469 961.449219 C 1292.378906 940.371094 1253.671875 927.050781 1214.011719 922.753906 C 1169.109375 917.878906 1122.859375 923.601563 1081.03125 940.890625 C 1068.539063 946.019531 1056.191406 951.703125 1044.78125 958.964844 L 1044.578125 958.839844 C 1034.101563 952.179688 1024 944.949219 1014.46875 937.003906 L 1014.191406 936.769531 C 1016.070313 923.96875 1018.300781 911.238281 1021.410156 898.679688 C 1021.539063 898.589844 1021.789063 898.390625 1021.910156 898.289063 C 1042.28125 894.140625 1061.828125 886.511719 1080.441406 877.359375 C 1145.371094 845.289063 1195.730469 785.210938 1215.980469 715.679688 Z M 1215.980469 715.679688 "/>
<path style=" stroke:none;fill-rule:evenodd;fill:rgb(72.459412%,84.375%,32.542419%);fill-opacity:1;" d="M 1582.628906 715.121094 C 1623.03125 722.699219 1661.488281 740.519531 1693.550781 766.269531 C 1722.199219 789.289063 1745.960938 818.460938 1762.359375 851.371094 C 1783.179688 892.730469 1792.269531 939.84375 1788.429688 985.972656 C 1785.378906 1026.703125 1771.980469 1066.585938 1750.230469 1101.125 C 1719.601563 1150.222656 1671.699219 1188.214844 1616.929688 1206.863281 C 1606.601563 1210.535156 1595.890625 1213.015625 1585.199219 1215.464844 L 1585.109375 1215.324219 C 1574.5 1198.253906 1561.921875 1182.414063 1547.640625 1168.265625 C 1497.210938 1118.996094 1446.628906 1069.90625 1396.078125 1020.765625 C 1382.300781 1007.542969 1369.121094 993.675781 1354.359375 981.535156 C 1345.539063 974.214844 1336.128906 967.644531 1326.429688 961.574219 C 1334.058594 956.484375 1341.921875 951.714844 1349.191406 946.085938 C 1364.320313 935.09375 1377.519531 921.785156 1390.859375 908.78125 C 1442.738281 858.320313 1494.621094 807.859375 1546.480469 757.390625 C 1559.839844 744.488281 1572.289063 730.570313 1582.628906 715.121094 Z M 1014.46875 937.003906 C 1023.988281 944.953125 1034.101563 952.183594 1044.578125 958.84375 C 1033.78125 965.644531 1023.101563 972.683594 1013.289063 980.875 C 1013.058594 978.34375 1012.898438 975.824219 1013.011719 973.304688 C 1014.601563 968.273438 1014.421875 962.683594 1012.988281 957.644531 C 1012.988281 950.746094 1013.71875 943.855469 1014.46875 937.003906 Z M 1014.46875 937.003906 "/>
<path style=" stroke:none;fill-rule:evenodd;fill:rgb(68.554688%,50.193787%,0.784302%);fill-opacity:1;" d="M 1110.109375 765 C 1140.921875 740.589844 1177.519531 723.710938 1215.980469 715.679688 C 1195.730469 785.210938 1145.371094 845.289063 1080.441406 877.359375 C 1061.828125 886.511719 1042.28125 894.140625 1021.910156 898.289063 C 1025.179688 884.460938 1030.441406 871.171875 1036.359375 858.269531 C 1053.128906 821.960938 1078.640625 789.710938 1110.109375 765 Z M 1110.109375 765 "/>
<path style=" stroke:none;fill-rule:evenodd;fill:rgb(50.584412%,14.109802%,19.213867%);fill-opacity:1;" d="M 592.847656 957.601563 C 636.847656 931.929688 688.199219 919.230469 739.089844 921.214844 C 784.796875 922.503906 830.148438 935.890625 869.289063 959.539063 C 853.636719 969.121094 836.605469 976.230469 819.316406 982.269531 C 770.386719 998.722656 716.777344 1000.691406 666.699219 988.300781 C 640.828125 981.589844 615.589844 971.71875 592.847656 957.601563 Z M 592.847656 957.601563 "/>
<path style=" stroke:none;fill-rule:evenodd;fill:rgb(29.417419%,56.054688%,3.137207%);fill-opacity:1;" d="M 1081.03125 940.890625 C 1122.859375 923.601563 1169.109375 917.878906 1214.011719 922.753906 C 1253.671875 927.050781 1292.378906 940.371094 1326.230469 961.449219 C 1289.289063 983.511719 1246.960938 996.320313 1204.011719 998.800781 C 1158.960938 1001.441406 1113.109375 993.132813 1072.269531 973.730469 C 1062.710938 969.585938 1053.71875 964.269531 1044.78125 958.964844 C 1056.191406 951.703125 1068.539063 946.019531 1081.03125 940.890625 Z M 1081.03125 940.890625 "/>
<path style=" stroke:none;fill-rule:evenodd;fill:rgb(53.318787%,29.417419%,52.539063%);fill-opacity:1;" d="M 592.730469 957.671875 L 592.847656 957.601563 C 615.589844 971.71875 640.828125 981.589844 666.699219 988.300781 C 716.777344 1000.691406 770.386719 998.722656 819.316406 982.269531 C 836.605469 976.230469 853.636719 969.121094 869.289063 959.539063 L 869.4375 959.632813 C 882.21875 967.28125 894.285156 976.089844 905.578125 985.8125 L 905.847656 986.050781 C 904.058594 997.691406 902.027344 1009.300781 899.507813 1020.820313 L 899.105469 1020.921875 C 862.007813 1029.050781 826.816406 1045.601563 796.628906 1068.589844 C 751.296875 1103.058594 717.417969 1152.480469 702.1875 1207.390625 L 702.117188 1207.648438 C 687.878906 1210.289063 673.4375 1211.890625 658.976563 1212.289063 C 576.320313 1212.492188 493.660156 1212.320313 411.011719 1212.378906 C 384.949219 1212.589844 358.628906 1212.851563 333.089844 1206.949219 C 344.019531 1190.898438 356.710938 1176.089844 370.777344 1162.71875 C 426.507813 1108.441406 482.320313 1054.253906 538.058594 999.980469 C 554.457031 983.699219 572.769531 969.339844 592.730469 957.671875 Z M 592.730469 957.671875 "/>
<path style=" stroke:none;fill-rule:evenodd;fill:rgb(67.771912%,81.639099%,21.556091%);fill-opacity:1;" d="M 1013 957.640625 C 1014.421875 962.679688 1014.601563 968.269531 1013.011719 973.300781 C 1012.859375 968.070313 1012.871094 962.851563 1013 957.640625 Z M 1013 957.640625 "/>
<path style=" stroke:none;fill-rule:evenodd;fill:rgb(30.589294%,62.693787%,22.363281%);fill-opacity:1;" d="M 1044.578125 958.839844 L 1044.78125 958.964844 C 1053.71875 964.269531 1062.710938 969.585938 1072.269531 973.730469 C 1113.109375 993.132813 1158.960938 1001.441406 1204.011719 998.800781 C 1246.960938 996.320313 1289.289063 983.511719 1326.230469 961.449219 L 1326.429688 961.570313 C 1336.128906 967.640625 1345.539063 974.214844 1354.359375 981.53125 C 1369.109375 993.671875 1382.308594 1007.539063 1396.070313 1020.761719 C 1446.628906 1069.902344 1497.210938 1118.992188 1547.640625 1168.261719 C 1561.921875 1182.410156 1574.5 1198.253906 1585.109375 1215.320313 C 1564.078125 1219.808594 1542.488281 1220.628906 1521.050781 1220.378906 C 1436.671875 1220.378906 1352.320313 1220.398438 1267.941406 1220.371094 C 1249.351563 1220.277344 1230.761719 1218.441406 1212.578125 1214.480469 C 1212.488281 1214.464844 1212.289063 1214.410156 1212.191406 1214.390625 C 1203.460938 1178.351563 1186.421875 1144.429688 1163.5 1115.335938 C 1127.53125 1069.570313 1076.089844 1036.0625 1019.46875 1022.351563 C 1019.339844 1022.308594 1019.089844 1022.253906 1018.960938 1022.21875 C 1016.160156 1008.621094 1014.328125 994.871094 1013.070313 981.0625 L 1013.300781 980.871094 C 1023.101563 972.679688 1033.789063 965.640625 1044.578125 958.839844 Z M 1044.578125 958.839844 "/>
<path style=" stroke:none;fill-rule:evenodd;fill:rgb(42.358398%,74.414063%,68.943787%);fill-opacity:1;" d="M 978.015625 1015.621094 C 988.546875 1003.003906 1000.320313 991.421875 1013.070313 981.0625 C 1014.328125 994.871094 1016.160156 1008.621094 1018.960938 1022.21875 C 1005.539063 1018.839844 991.796875 1016.730469 978.015625 1015.621094 Z M 1212.578125 1214.480469 C 1230.761719 1218.441406 1249.351563 1220.28125 1267.941406 1220.371094 C 1352.320313 1220.398438 1436.671875 1220.378906 1521.050781 1220.378906 C 1542.488281 1220.628906 1564.078125 1219.808594 1585.109375 1215.320313 L 1585.210938 1215.464844 C 1606.761719 1250.472656 1619.761719 1290.835938 1621.890625 1331.941406 C 1624.261719 1372.382813 1616.570313 1413.449219 1599.320313 1450.160156 C 1583.679688 1484.378906 1559.859375 1514.699219 1531.011719 1538.808594 C 1501.769531 1563.371094 1467.011719 1581.171875 1430.21875 1591.28125 C 1385.261719 1603.328125 1337.300781 1603.757813 1292.109375 1592.691406 C 1264.410156 1585.730469 1237.78125 1574.398438 1213.601563 1559.191406 L 1213.640625 1559.019531 C 1218.148438 1539.289063 1220.289063 1519.058594 1220.339844 1498.828125 C 1220.371094 1440.871094 1220.351563 1382.898438 1220.359375 1324.941406 C 1220.019531 1300.253906 1221.328125 1275.480469 1218.820313 1250.871094 C 1217.609375 1238.601563 1215.058594 1226.546875 1212.578125 1214.480469 Z M 1212.578125 1214.480469 "/>
<path style=" stroke:none;fill-rule:evenodd;fill:rgb(64.256287%,55.271912%,75.78125%);fill-opacity:1;" d="M 899.507813 1020.820313 C 902.027344 1009.300781 904.058594 997.691406 905.847656 986.050781 C 916.277344 995.160156 926.046875 1005.011719 934.925781 1015.648438 C 923.027344 1016.492188 911.167969 1018.300781 899.507813 1020.820313 Z M 333.089844 1206.949219 C 358.628906 1212.851563 384.949219 1212.589844 411.011719 1212.378906 C 493.660156 1212.320313 576.320313 1212.492188 658.976563 1212.289063 C 673.4375 1211.890625 687.878906 1210.296875 702.117188 1207.648438 C 698.527344 1220.480469 695.816406 1233.570313 694.226563 1246.800781 C 691.328125 1268.359375 692.238281 1290.171875 692.078125 1311.859375 C 692.089844 1371.199219 692.078125 1430.550781 692.078125 1489.898438 C 691.796875 1513.152344 693.597656 1536.527344 699.078125 1559.171875 L 699.109375 1559.300781 C 662.976563 1581.839844 621.578125 1596.003906 579.097656 1599.527344 C 531.808594 1603.730469 483.277344 1595.898438 440.238281 1575.671875 C 405.96875 1560.050781 375.339844 1536.660156 350.789063 1508.140625 C 324.289063 1477.089844 305.089844 1439.621094 296.5 1399.648438 C 286.121094 1353.429688 289.601563 1304.289063 305.9375 1259.851563 C 312.910156 1241.253906 322.089844 1223.480469 333.089844 1206.953125 Z M 333.089844 1206.949219 "/>
<path style=" stroke:none;fill-rule:evenodd;fill:rgb(47.459412%,67.771912%,86.326599%);fill-opacity:1;" d="M 935.488281 1015.621094 C 949.4375 1014.335938 963.527344 1014.410156 977.488281 1015.621094 C 970.335938 1025.402344 962.867188 1034.988281 956.398438 1045.269531 C 950.847656 1036.679688 945.21875 1028.109375 938.65625 1020.253906 C 937.445313 1018.8125 936.425781 1017.21875 935.488281 1015.621094 Z M 956.277344 1306.214844 C 961.898438 1314.339844 967.214844 1322.699219 973.476563 1330.371094 C 984.898438 1345.179688 998.605469 1357.964844 1011.980469 1370.96875 C 1065.019531 1422.570313 1118.070313 1474.160156 1171.109375 1525.757813 C 1184.179688 1538.160156 1198.25 1549.609375 1213.640625 1559.019531 L 1213.601563 1559.1875 C 1204.359375 1599.878906 1185.011719 1638.148438 1158.171875 1670.058594 C 1132.480469 1700.539063 1099.890625 1725.289063 1063.410156 1741.421875 C 1023.679688 1759.277344 979.4375 1766.839844 936.046875 1763.386719 C 893.636719 1760.320313 852.066406 1746.4375 816.136719 1723.738281 C 757.519531 1687.1875 714.277344 1626.738281 699.109375 1559.300781 L 699.078125 1559.171875 C 720.617188 1546.003906 739.1875 1528.726563 756.949219 1510.9375 C 809.996094 1459.308594 863.105469 1407.738281 916.117188 1356.070313 C 931.425781 1341.128906 945.117188 1324.480469 956.277344 1306.214844 Z M 956.277344 1306.214844 "/>
<path style=" stroke:none;fill-rule:evenodd;fill:rgb(30.589294%,37.646484%,65.429688%);fill-opacity:1;" d="M 899.507813 1020.820313 C 911.167969 1018.300781 923.027344 1016.492188 934.925781 1015.648438 L 935.488281 1015.621094 C 936.425781 1017.222656 937.445313 1018.8125 938.65625 1020.253906 C 945.21875 1028.113281 950.847656 1036.679688 956.398438 1045.269531 L 956.417969 1045.511719 C 945.796875 1062.53125 937.566406 1080.992188 931.238281 1100.003906 C 917.417969 1143.3125 915.847656 1190.390625 926.507813 1234.558594 C 932.597656 1259.78125 942.96875 1283.878906 956.378906 1306.0625 L 956.277344 1306.214844 C 945.117188 1324.480469 931.429688 1341.128906 916.117188 1356.070313 C 863.109375 1407.742188 810 1459.308594 756.949219 1510.941406 C 739.1875 1528.730469 720.617188 1546.003906 699.078125 1559.171875 C 693.597656 1536.527344 691.796875 1513.152344 692.078125 1489.898438 C 692.078125 1430.550781 692.089844 1371.199219 692.078125 1311.859375 C 692.238281 1290.171875 691.328125 1268.359375 694.226563 1246.800781 C 695.816406 1233.570313 698.527344 1220.480469 702.117188 1207.648438 L 702.1875 1207.390625 C 722.417969 1203.859375 741.917969 1196.839844 760.597656 1188.410156 C 812.386719 1164.140625 855.585938 1121.921875 880.789063 1070.550781 C 888.578125 1054.714844 895.117188 1038.132813 899.105469 1020.921875 Z M 899.507813 1020.820313 "/>
<path style=" stroke:none;fill-rule:evenodd;fill:rgb(19.993591%,50.584412%,59.568787%);fill-opacity:1;" d="M 977.488281 1015.621094 L 978.015625 1015.621094 C 991.796875 1016.730469 1005.539063 1018.839844 1018.960938 1022.21875 C 1019.089844 1022.253906 1019.339844 1022.308594 1019.46875 1022.351563 C 1023.660156 1044.921875 1032.730469 1066.351563 1043.300781 1086.632813 C 1060.828125 1119.109375 1085.519531 1147.679688 1115.058594 1169.800781 C 1143.789063 1191.300781 1177.101563 1206.800781 1212.191406 1214.390625 C 1212.289063 1214.410156 1212.488281 1214.464844 1212.578125 1214.480469 C 1215.058594 1226.539063 1217.609375 1238.597656 1218.820313 1250.871094 C 1221.328125 1275.480469 1220.019531 1300.253906 1220.359375 1324.9375 C 1220.351563 1382.898438 1220.371094 1440.867188 1220.339844 1498.828125 C 1220.289063 1519.058594 1218.148438 1539.289063 1213.640625 1559.019531 C 1198.25 1549.609375 1184.179688 1538.160156 1171.109375 1525.757813 C 1118.070313 1474.160156 1065.019531 1422.570313 1011.980469 1370.96875 C 998.605469 1357.964844 984.898438 1345.179688 973.476563 1330.367188 C 967.214844 1322.699219 961.898438 1314.339844 956.277344 1306.210938 L 956.378906 1306.058594 C 978.46875 1270.320313 991.367188 1228.859375 993.226563 1186.871094 C 995.507813 1137.492188 982.546875 1087.480469 956.417969 1045.507813 L 956.398438 1045.269531 C 962.867188 1034.988281 970.335938 1025.398438 977.488281 1015.621094 Z M 977.488281 1015.621094 "/>
<path style=" stroke:none;fill-rule:evenodd;fill:rgb(25.488281%,19.993591%,45.483398%);fill-opacity:1;" d="M 796.628906 1068.589844 C 826.816406 1045.601563 862.007813 1029.050781 899.105469 1020.921875 C 895.117188 1038.132813 888.578125 1054.714844 880.789063 1070.550781 C 855.585938 1121.921875 812.386719 1164.140625 760.597656 1188.410156 C 741.917969 1196.839844 722.417969 1203.859375 702.1875 1207.390625 C 717.417969 1152.480469 751.296875 1103.058594 796.628906 1068.589844 Z M 796.628906 1068.589844 "/>
<path style=" stroke:none;fill-rule:evenodd;fill:rgb(14.501953%,42.747498%,19.213867%);fill-opacity:1;" d="M 1019.46875 1022.351563 C 1076.089844 1036.0625 1127.53125 1069.570313 1163.5 1115.335938 C 1186.421875 1144.429688 1203.460938 1178.351563 1212.191406 1214.390625 C 1177.101563 1206.800781 1143.789063 1191.300781 1115.058594 1169.800781 C 1085.519531 1147.679688 1060.828125 1119.109375 1043.300781 1086.632813 C 1032.730469 1066.351563 1023.660156 1044.921875 1019.46875 1022.351563 Z M 1019.46875 1022.351563 "/>
<path style=" stroke:none;fill-rule:evenodd;fill:rgb(12.939453%,28.24707%,45.092773%);fill-opacity:1;" d="M 956.417969 1045.511719 C 982.546875 1087.480469 995.507813 1137.492188 993.226563 1186.871094 C 991.367188 1228.859375 978.46875 1270.320313 956.378906 1306.058594 C 942.96875 1283.878906 932.597656 1259.78125 926.507813 1234.558594 C 915.847656 1190.390625 917.417969 1143.3125 931.238281 1100.003906 C 937.566406 1080.992188 945.796875 1062.53125 956.417969 1045.511719 Z M 956.417969 1045.511719 "/>
</g>
</svg>
